<?xml version="1.0" standalone="no"?>
<!DOCTYPE svg PUBLIC "-//W3C//DTD SVG 20010904//EN"
 "http://www.w3.org/TR/2001/REC-SVG-20010904/DTD/svg10.dtd">
<svg version="1.0" xmlns="http://www.w3.org/2000/svg"
 width="512.000000pt" height="512.000000pt" viewBox="0 0 512.000000 512.000000"
 preserveAspectRatio="xMidYMid meet">

<g transform="translate(0.000000,512.000000) scale(0.100000,-0.100000)"
fill="#506490" stroke="none">
<path d="M1584 4996 c-682 -335 -1186 -959 -1372 -1701 -78 -307 -96 -711 -47
-1025 85 -544 340 -1045 730 -1436 397 -398 891 -648 1462 -739 135 -22 490
-31 623 -16 338 38 596 111 885 250 512 247 924 650 1181 1153 70 138 83 189
64 258 -16 58 -89 133 -145 149 -86 24 -137 9 -251 -71 -236 -166 -485 -276
-754 -333 -194 -42 -450 -56 -620 -35 -203 25 -216 25 -244 -3 -34 -34 -35
-88 -3 -121 57 -57 492 -78 774 -37 319 47 644 176 921 368 69 48 99 63 120
61 46 -5 40 -43 -24 -168 -234 -459 -632 -843 -1106 -1070 -908 -433 -1987
-261 -2716 434 -593 566 -858 1385 -711 2193 135 745 622 1390 1307 1732 90
45 118 46 128 5 5 -19 -5 -41 -45 -97 -410 -582 -518 -1307 -295 -1976 183
-546 580 -1007 1091 -1267 128 -64 304 -134 339 -134 31 0 84 50 84 80 0 49
-27 77 -102 105 -518 193 -916 550 -1148 1030 -145 300 -206 591 -197 939 6
237 33 399 104 606 53 158 164 373 263 510 81 112 97 158 79 239 -13 60 -67
126 -123 152 -74 33 -129 26 -252 -35z"/>
<path d="M3618 4297 c-53 -44 -58 -114 -10 -162 50 -50 145 -31 172 35 41 100
-80 195 -162 127z"/>
<path d="M2943 4105 c-38 -16 -47 -35 -61 -128 -28 -182 -155 -298 -356 -323
-61 -7 -96 -39 -96 -87 0 -20 8 -42 20 -55 12 -12 22 -22 23 -22 183 -31 243
-56 316 -135 54 -60 86 -131 97 -217 11 -84 35 -117 87 -118 62 0 85 30 97
126 22 175 161 311 337 330 82 8 117 35 117 88 0 57 -33 83 -123 95 -180 24
-306 150 -331 331 -15 106 -58 145 -127 115z m162 -565 c-38 -31 -63 -56 -97
-98 l-27 -32 -81 81 c-45 45 -80 82 -78 83 26 15 100 83 122 113 l29 39 82
-81 81 -80 -31 -25z"/>
<path d="M3685 2886 c-129 -42 -198 -131 -199 -256 -1 -157 115 -274 270 -273
231 2 351 271 200 450 -57 67 -190 106 -271 79z m136 -195 c21 -22 29 -39 29
-66 0 -51 -44 -95 -95 -95 -27 0 -44 8 -66 29 -21 22 -29 39 -29 66 0 27 8 44
29 66 22 21 39 29 66 29 27 0 44 -8 66 -29z"/>
<path d="M2914 2602 c-82 -66 -42 -191 61 -192 50 0 83 22 102 67 18 43 4 93
-34 123 -32 25 -100 26 -129 2z"/>
<path d="M83 1303 c-12 -2 -33 -16 -47 -30 -68 -68 -22 -183 74 -183 42 0 75
20 95 60 19 37 19 54 0 95 -21 43 -72 67 -122 58z"/>
<path d="M295 726 c-60 -28 -127 -98 -146 -152 -7 -21 -13 -66 -13 -99 2 -244
304 -357 467 -175 52 57 70 102 70 180 0 78 -18 123 -70 180 -79 88 -204 115
-308 66z m161 -168 c63 -30 55 -131 -13 -163 -64 -31 -133 15 -133 87 1 76 72
113 146 76z"/>
</g>
</svg>
